<?xml version="1.0" encoding="utf-8"?>
<!-- Generator: Adobe Illustrator 25.0.0, SVG Export Plug-In . SVG Version: 6.00 Build 0)  -->
<svg version="1.1" xmlns="http://www.w3.org/2000/svg" xmlns:xlink="http://www.w3.org/1999/xlink" x="0px" y="0px"
	 viewBox="0 0 595.28 841.89" style="enable-background:new 0 0 595.28 841.89;" xml:space="preserve">
<style type="text/css">
	.st0{fill:none;stroke:#000000;stroke-miterlimit:10;}
	.st1{fill:none;stroke:#000000;stroke-width:3;stroke-miterlimit:10;}
	.st2{fill:none;stroke:#FFFFFF;stroke-width:3;}
	.st3{fill:#FFFFFF;}
	.st4{fill:none;stroke:#000000;stroke-width:0.5;stroke-miterlimit:10;}
	.st5{fill:none;stroke:#000000;stroke-width:0.25;stroke-miterlimit:10;}
	.st6{fill:none;stroke:#000000;stroke-width:0.15;stroke-miterlimit:10;}
	.st7{fill:#E8E8E8;}
	.st8{fill:none;stroke:#E8E8E8;stroke-miterlimit:10;}
</style>
<g id="Lager_1">
	<g>
		<path class="st2" d="M203.26,244.97l32.37,86.56h-19.76l-6.55-19.28h-32.37l-6.79,19.28h-19.15l32.73-86.56H203.26z
			 M204.35,298.07l-10.91-31.76h-0.24l-11.28,31.76H204.35z"/>
		<path class="st2" d="M314.07,244.97c3.88,0,7.38,0.63,10.49,1.88c3.11,1.25,5.77,2.97,8,5.15c2.22,2.18,3.92,4.71,5.09,7.58
			c1.17,2.87,1.76,5.96,1.76,9.27c0,5.09-1.07,9.5-3.21,13.22c-2.14,3.72-5.64,6.55-10.49,8.48v0.24c2.35,0.65,4.28,1.64,5.82,2.97
			c1.53,1.33,2.78,2.91,3.76,4.73c0.97,1.82,1.68,3.82,2.12,6c0.45,2.18,0.75,4.37,0.91,6.55c0.08,1.38,0.16,2.99,0.24,4.85
			c0.08,1.86,0.22,3.76,0.43,5.7c0.2,1.94,0.53,3.78,0.97,5.52s1.11,3.21,2,4.42h-19.04c-1.05-2.74-1.7-6.02-1.94-9.82
			c-0.24-3.8-0.61-7.44-1.09-10.91c-0.64-4.53-2.02-7.84-4.12-9.94c-2.1-2.1-5.53-3.15-10.3-3.15h-19.04v33.83H267.4v-86.56H314.07z
			 M307.28,284.13c4.36,0,7.64-0.97,9.82-2.91c2.18-1.94,3.28-5.09,3.28-9.45c0-4.21-1.09-7.26-3.28-9.16
			c-2.18-1.9-5.45-2.85-9.82-2.85h-20.85v24.37H307.28z"/>
		<path class="st2" d="M370.2,260.97v-16.01h70.93v16.01h-25.95v70.56h-19.04v-70.56H370.2z"/>
		<path class="st2" d="M196.9,442.82c-3.92,1.7-8.35,2.54-13.28,2.54c-3.88,0-7.54-0.57-10.97-1.7c-3.43-1.13-6.41-2.81-8.91-5.03
			c-2.5-2.22-4.49-4.93-5.94-8.12c-1.45-3.19-2.18-6.85-2.18-10.98c0-3.07,0.52-5.88,1.57-8.42c1.05-2.55,2.49-4.85,4.31-6.91
			c1.82-2.06,3.9-3.9,6.24-5.52c2.34-1.62,4.77-3.03,7.27-4.24c-2.34-2.83-4.3-5.66-5.88-8.48c-1.57-2.83-2.36-6.14-2.36-9.94
			c0-2.99,0.63-5.7,1.88-8.13c1.25-2.42,2.93-4.5,5.03-6.24c2.1-1.74,4.51-3.07,7.21-4c2.71-0.93,5.52-1.39,8.43-1.39
			c3.31,0,6.4,0.45,9.27,1.33c2.87,0.89,5.38,2.21,7.52,3.94c2.14,1.74,3.84,3.9,5.09,6.49s1.88,5.58,1.88,8.97
			c0,5.09-1.48,9.38-4.42,12.85c-2.95,3.47-6.61,6.38-10.97,8.73l11.15,13.7c0.89-1.62,1.58-3.29,2.06-5.03
			c0.49-1.74,0.85-3.49,1.09-5.28h14.91c-0.41,3.88-1.29,7.64-2.67,11.28c-1.38,3.64-3.28,6.99-5.7,10.06l17.58,20.49h-21.1
			l-7.03-8.61C204.51,438.57,200.82,441.12,196.9,442.82z M179.62,407.9c-1.46,0.89-2.75,1.94-3.88,3.15
			c-1.13,1.21-2.04,2.55-2.73,4c-0.69,1.46-1.03,3.07-1.03,4.85c0,1.54,0.34,3.01,1.03,4.42c0.69,1.42,1.6,2.63,2.73,3.64
			c1.13,1.01,2.45,1.82,3.94,2.42c1.5,0.61,3.05,0.91,4.67,0.91c3.07,0,5.76-0.71,8.06-2.12c2.3-1.41,4.46-3.25,6.49-5.52
			l-14.79-18.06C182.57,406.25,181.08,407.01,179.62,407.9z M195.68,370.2c-1.57-1.62-3.41-2.42-5.52-2.42
			c-2.1,0-3.92,0.71-5.45,2.12c-1.53,1.41-2.3,3.25-2.3,5.52c0,2.74,0.73,5.09,2.18,7.03c1.45,1.94,2.99,3.92,4.6,5.94
			c2.42-1.53,4.51-3.19,6.24-4.97c1.74-1.78,2.61-4.24,2.61-7.39C198.05,373.75,197.26,371.81,195.68,370.2z"/>
		<path class="st2" d="M179.13,469.48v70.56h42.19v16.01H160.1v-86.57H179.13z"/>
		<path class="st2" d="M299.4,469.48l32.37,86.57h-19.76l-6.55-19.28h-32.37l-6.79,19.28h-19.15l32.73-86.57H299.4z M300.49,522.58
			l-10.91-31.77h-0.24l-11.28,31.77H300.49z"/>
		<path class="st2" d="M424.15,556.04l-14.67-58.92h-0.24l-14.43,58.92h-19.28l-22.91-86.57h19.04l13.7,58.92h0.24l15.04-58.92
			h17.82l14.79,59.65h0.24l14.19-59.65h18.67l-23.28,86.57H424.15z"/>
	</g>
</g>
<g id="Lager_2">
	<g>
		<path class="st3" d="M166.7,577.26v7.38h7.78v-7.38h4.23v19.24h-4.23v-8.3h-7.78v8.3h-4.23v-19.24H166.7z"/>
		<path class="st3" d="M197.41,577.26l7.2,19.24h-4.39l-1.46-4.28h-7.19l-1.51,4.28h-4.26l7.27-19.24H197.41z M197.66,589.06
			l-2.42-7.06h-0.06l-2.5,7.06H197.66z"/>
		<path class="st3" d="M223.07,596.34c-0.92,0.39-1.84,0.58-2.78,0.58c-1.47,0-2.8-0.25-3.97-0.77c-1.18-0.51-2.17-1.21-2.98-2.11
			c-0.81-0.9-1.43-1.96-1.86-3.17c-0.43-1.21-0.65-2.52-0.65-3.92c0-1.44,0.22-2.77,0.65-4c0.43-1.23,1.05-2.31,1.86-3.22
			c0.81-0.91,1.8-1.63,2.98-2.15c1.18-0.52,2.5-0.78,3.97-0.78c0.99,0,1.94,0.15,2.87,0.44c0.93,0.3,1.76,0.73,2.51,1.31
			c0.75,0.57,1.36,1.28,1.85,2.13c0.48,0.85,0.78,1.82,0.89,2.91h-4.04c-0.25-1.08-0.74-1.89-1.46-2.42s-1.59-0.81-2.61-0.81
			c-0.95,0-1.76,0.18-2.42,0.55c-0.67,0.37-1.2,0.86-1.62,1.48c-0.41,0.62-0.71,1.32-0.9,2.11c-0.19,0.79-0.29,1.61-0.29,2.45
			c0,0.81,0.1,1.6,0.29,2.36c0.19,0.76,0.49,1.45,0.9,2.06c0.42,0.61,0.95,1.1,1.62,1.46c0.67,0.37,1.47,0.55,2.42,0.55
			c1.4,0,2.48-0.35,3.24-1.06c0.76-0.71,1.21-1.74,1.33-3.09h-4.25v-3.15h8.08v10.4H226l-0.43-2.18
			C224.82,595.28,223.98,595.96,223.07,596.34z"/>
		<path class="st3" d="M246.55,577.26c0.92,0,1.75,0.08,2.51,0.24c0.75,0.16,1.4,0.43,1.94,0.8c0.54,0.37,0.96,0.86,1.25,1.47
			c0.29,0.61,0.44,1.36,0.44,2.26c0,0.97-0.22,1.78-0.66,2.42c-0.44,0.64-1.09,1.18-1.96,1.59c1.19,0.34,2.07,0.94,2.65,1.79
			c0.58,0.85,0.88,1.88,0.88,3.08c0,0.97-0.19,1.81-0.57,2.52s-0.89,1.29-1.52,1.74c-0.64,0.45-1.36,0.78-2.18,1
			c-0.82,0.21-1.66,0.32-2.52,0.32h-9.32v-19.24H246.55z M246.01,585.04c0.75,0,1.38-0.18,1.86-0.54c0.49-0.36,0.73-0.94,0.73-1.75
			c0-0.45-0.08-0.82-0.24-1.1c-0.16-0.29-0.38-0.51-0.64-0.68c-0.27-0.16-0.58-0.27-0.93-0.34c-0.35-0.06-0.71-0.09-1.09-0.09h-3.96
			v4.5H246.01z M246.26,593.2c0.41,0,0.81-0.04,1.18-0.12c0.38-0.08,0.71-0.21,1-0.4c0.29-0.19,0.52-0.45,0.69-0.77
			c0.17-0.32,0.25-0.74,0.25-1.24c0-0.99-0.28-1.69-0.83-2.11c-0.56-0.43-1.29-0.64-2.21-0.64h-4.6v5.28H246.26z"/>
		<path class="st3" d="M271.45,577.26l7.2,19.24h-4.39l-1.46-4.28h-7.19l-1.51,4.28h-4.26l7.27-19.24H271.45z M271.69,589.06
			l-2.42-7.06h-0.06l-2.5,7.06H271.69z"/>
		<path class="st3" d="M296.07,577.26c0.86,0,1.64,0.14,2.33,0.42c0.69,0.28,1.28,0.66,1.78,1.15c0.5,0.48,0.87,1.04,1.13,1.68
			c0.26,0.64,0.39,1.32,0.39,2.06c0,1.13-0.24,2.11-0.71,2.93c-0.48,0.83-1.25,1.46-2.33,1.89v0.06c0.52,0.14,0.95,0.36,1.29,0.66
			c0.34,0.3,0.62,0.65,0.84,1.05c0.21,0.4,0.37,0.85,0.47,1.33c0.1,0.48,0.17,0.97,0.2,1.46c0.02,0.3,0.04,0.66,0.05,1.07
			c0.02,0.42,0.05,0.84,0.1,1.27c0.04,0.43,0.12,0.84,0.21,1.23c0.1,0.39,0.25,0.71,0.44,0.98h-4.23c-0.23-0.61-0.38-1.34-0.43-2.18
			c-0.06-0.84-0.14-1.65-0.25-2.42c-0.14-1-0.45-1.74-0.92-2.21c-0.46-0.47-1.23-0.7-2.29-0.7h-4.23v7.52h-4.23v-19.24H296.07z
			 M294.56,585.96c0.97,0,1.7-0.21,2.18-0.65c0.49-0.43,0.73-1.13,0.73-2.1c0-0.93-0.24-1.61-0.73-2.03
			c-0.49-0.42-1.21-0.63-2.18-0.63h-4.63v5.42H294.56z"/>
		<path class="st3" d="M333.01,577.26l7.2,19.24h-4.39l-1.46-4.28h-7.19l-1.51,4.28h-4.26l7.27-19.24H333.01z M333.25,589.06
			l-2.42-7.06h-0.06l-2.5,7.06H333.25z"/>
		<path class="st3" d="M356.31,577.26c0.92,0,1.75,0.08,2.51,0.24c0.75,0.16,1.4,0.43,1.94,0.8c0.54,0.37,0.96,0.86,1.25,1.47
			c0.29,0.61,0.44,1.36,0.44,2.26c0,0.97-0.22,1.78-0.66,2.42c-0.44,0.64-1.09,1.18-1.96,1.59c1.19,0.34,2.07,0.94,2.65,1.79
			c0.58,0.85,0.88,1.88,0.88,3.08c0,0.97-0.19,1.81-0.57,2.52s-0.89,1.29-1.52,1.74c-0.64,0.45-1.36,0.78-2.18,1
			c-0.82,0.21-1.66,0.32-2.52,0.32h-9.32v-19.24H356.31z M355.77,585.04c0.75,0,1.38-0.18,1.86-0.54c0.49-0.36,0.73-0.94,0.73-1.75
			c0-0.45-0.08-0.82-0.24-1.1c-0.16-0.29-0.38-0.51-0.64-0.68c-0.27-0.16-0.58-0.27-0.93-0.34c-0.35-0.06-0.71-0.09-1.09-0.09h-3.96
			v4.5H355.77z M356.02,593.2c0.41,0,0.81-0.04,1.18-0.12c0.38-0.08,0.71-0.21,1-0.4c0.29-0.19,0.52-0.45,0.69-0.77
			c0.17-0.32,0.25-0.74,0.25-1.24c0-0.99-0.28-1.69-0.83-2.11c-0.56-0.43-1.29-0.64-2.21-0.64h-4.6v5.28H356.02z"/>
	</g>
</g>
<g id="Lager_3">
</g>
<g id="Lager_4">
</g>
</svg>
